<?xml version="1.0" encoding="UTF-8" standalone="no"?>
<!DOCTYPE svg PUBLIC "-//W3C//DTD SVG 1.1//EN" "http://www.w3.org/Graphics/SVG/1.1/DTD/svg11.dtd">
<!-- Created with Vectornator (http://vectornator.io/) -->
<svg height="100%" stroke-miterlimit="10" style="fill-rule:nonzero;clip-rule:evenodd;stroke-linecap:round;stroke-linejoin:round;" version="1.1" viewBox="0 0 1080 360.057" width="100%" xml:space="preserve" xmlns="http://www.w3.org/2000/svg" xmlns:vectornator="http://vectornator.io" xmlns:xlink="http://www.w3.org/1999/xlink">
<defs>
<linearGradient gradientTransform="matrix(1.19387 0 0 1.19387 -24.0468 -463.596)" gradientUnits="userSpaceOnUse" id="LinearGradient" x1="140.031" x2="135.157" y1="607.468" y2="569.454">
<stop offset="0" stop-color="#e51e27"/>
<stop offset="1" stop-color="#f29415"/>
</linearGradient>
<linearGradient gradientTransform="matrix(1.19387 0 0 1.19387 -24.0468 -463.596)" gradientUnits="userSpaceOnUse" id="LinearGradient_2" x1="117.747" x2="145.446" y1="505.207" y2="468.83">
<stop offset="0" stop-color="#e51e27"/>
<stop offset="1" stop-color="#f29415"/>
</linearGradient>
<linearGradient gradientTransform="matrix(1.19387 0 0 1.19387 -24.0468 -463.596)" gradientUnits="userSpaceOnUse" id="LinearGradient_3" x1="216.049" x2="242.232" y1="478.082" y2="523.055">
<stop offset="0" stop-color="#e51e27"/>
<stop offset="1" stop-color="#f29415"/>
</linearGradient>
<linearGradient gradientTransform="matrix(1.19387 0 0 1.19387 -24.0468 -463.596)" gradientUnits="userSpaceOnUse" id="LinearGradient_4" x1="262.553" x2="219.178" y1="584.215" y2="612.577">
<stop offset="0" stop-color="#e51e27"/>
<stop offset="1" stop-color="#f29415"/>
</linearGradient>
</defs>
<g id="Layer-1" vectornator:layerName="Layer 1">
<g opacity="1" vectornator:layerName="Group 6">
<path d="M71.7135 73.1565L238.032 73.264C264.571 73.2759 286.288 94.9805 286.288 121.52L286.288 239.952C286.288 266.492 264.571 288.244 238.032 288.208L197.189 288.161L197.189 250.745L226.941 250.745C230.212 250.745 233.614 249.599 235.883 248.476C243.297 244.775 248.824 236.191 248.824 227.775L248.824 175.006C248.824 165.646 242.795 160.524 237.268 155.653L233.984 152.656C229.591 148.227 221.126 141.267 216.482 136.79L196.915 118.906C194.945 117.33 195.016 117.043 192.306 115.038C188.737 112.399 184.415 110.966 180.021 110.752L177.658 110.752C173.204 110.966 168.811 112.435 165.182 115.157C162.46 117.198 160.74 119.085 158.651 120.935L130.345 146.496C129.473 147.379 129.151 147.678 128.184 148.442L121.593 154.423C120.782 155.211 120.352 155.748 119.48 156.417C118.585 157.098 118.191 157.659 117.355 158.399C115.361 160.166 116.126 159.151 114.323 161.384C111.684 164.655 108.819 169.43 108.819 174.743L108.819 228.61C108.819 234.102 111.851 240.024 115.445 243.868C118.692 247.342 125.462 250.769 130.703 250.769L160.454 250.769L160.454 288.137L71.8807 288.232L71.7255 243.414L71.7255 73.1565L71.7135 73.1565Z" fill="url(#LinearGradient)" fill-rule="nonzero" opacity="1" stroke="none" vectornator:layerName="path"/>
<path d="M71.7135 73.1565L239.918 73.264C208.233 73.264 182.648 98.8725 155.392 123.848L71.3434 200.698L71.7135 73.1565Z" fill="url(#LinearGradient_2)" fill-rule="nonzero" opacity="1" stroke="none" vectornator:layerName="path"/>
<path d="M286.288 237.314C286.288 205.628 269.383 189.308 244.407 162.052L243.583 161.694L243.404 161.491L243.404 161.491L243.356 161.443L243.309 161.396L243.213 161.3L243.118 161.193L243.118 161.181L243.034 161.085L242.938 160.99L242.926 160.966L242.855 160.882L242.759 160.775L242.664 160.679L242.652 160.655L242.58 160.572L242.425 160.405L242.413 160.393L242.389 160.369L242.294 160.273L242.198 160.178L242.174 160.142L242.103 160.07L242.007 159.975L241.924 159.891L241.912 159.879L241.816 159.784L241.721 159.688L241.685 159.641L241.625 159.581L241.53 159.485L241.434 159.39L241.339 159.294L241.243 159.199L241.183 159.139L241.136 159.103L241.04 159.008L240.945 158.912L240.933 158.9L240.849 158.817L240.754 158.721L240.682 158.662L240.646 158.626L240.539 158.53L240.443 158.435L240.419 158.411L240.348 158.339L240.252 158.244L240.169 158.172L240.145 158.16L240.049 158.065L239.954 157.969L239.918 157.933L239.858 157.874L239.751 157.778L239.655 157.695L239.643 157.695L239.44 157.515L239.393 157.468L239.345 157.42L239.249 157.324L239.154 157.229L239.142 157.217L239.046 157.133L238.939 157.038L238.879 156.978L238.843 156.942L238.748 156.847L238.641 156.751L238.617 156.739L238.533 156.668L238.426 156.572L238.354 156.501L238.33 156.477L238.235 156.393L238.127 156.31L238.091 156.286L238.02 156.226L237.912 156.131L237.709 155.951L237.602 155.868L237.554 155.832L237.494 155.784L237.387 155.701L237.291 155.617L234.008 152.621C229.615 148.191 221.15 141.231 216.506 136.754L196.939 118.87C194.969 117.294 195.04 117.007 192.33 115.002C188.761 112.363 184.439 110.931 180.045 110.716L177.681 110.716C173.228 110.931 168.835 112.399 165.206 115.121C162.484 117.163 160.764 119.049 158.675 120.899L155.631 123.645L155.475 123.574L164.68 115.133C191.59 90.4557 207.851 73.6699 238.772 73.252C264.977 73.646 286.3 95.1954 286.3 121.496L286.3 237.314L286.288 237.314Z" fill="url(#LinearGradient_3)" fill-rule="nonzero" opacity="1" stroke="none" vectornator:layerName="path"/>
<path d="M197.189 250.745L225.615 250.745C230.188 250.745 234.975 249.814 240.037 245.731L241.136 244.752C245.756 240.382 248.812 234.031 248.812 227.763L248.812 174.994C248.812 169.287 246.568 165.156 243.571 161.694L244.395 162.052C269.371 189.308 286.276 205.628 286.276 237.314L286.276 239.952C286.276 266.492 264.559 288.208 238.02 288.208L197.177 288.208L197.177 250.745L197.189 250.745Z" fill="url(#LinearGradient_4)" fill-rule="nonzero" opacity="1" stroke="none" vectornator:layerName="path"/>
</g>
<g opacity="1" vectornator:layerName="Group 10">
<g opacity="1" vectornator:layerName="Group 8">
<path d="M347.847 221.573L358.5 221.573C360.488 221.573 362.475 221.866 364.463 222.45C366.45 223.035 368.248 223.955 369.855 225.212C371.463 226.469 372.763 228.076 373.757 230.035C374.751 231.993 375.248 234.346 375.248 237.093C375.248 239.753 374.751 242.054 373.757 243.998C372.763 245.941 371.463 247.549 369.855 248.82C368.248 250.092 366.45 251.042 364.463 251.67C362.475 252.298 360.488 252.613 358.5 252.613L347.847 252.613L347.847 221.573ZM352.187 248.798L357.624 248.798C359.494 248.798 361.226 248.535 362.819 248.009C364.412 247.483 365.785 246.723 366.94 245.73C368.094 244.736 368.993 243.508 369.636 242.047C370.279 240.586 370.6 238.934 370.6 237.093C370.6 235.164 370.279 233.469 369.636 232.007C368.993 230.546 368.094 229.326 366.94 228.347C365.785 227.368 364.412 226.622 362.819 226.111C361.226 225.599 359.494 225.344 357.624 225.344L352.187 225.344L352.187 248.798Z" fill="#363636" fill-rule="nonzero" opacity="1" stroke="none"/>
<path d="M381.356 236.304C381.356 235.748 381.341 235.032 381.312 234.156C381.283 233.279 381.239 232.504 381.181 231.832L385.083 231.832C385.141 232.358 385.185 232.965 385.214 233.651C385.243 234.338 385.258 234.901 385.258 235.339L385.389 235.339C385.974 234.112 386.829 233.125 387.954 232.38C389.079 231.635 390.343 231.262 391.746 231.262C392.389 231.262 392.93 231.321 393.368 231.437L393.193 235.252C392.609 235.105 391.98 235.032 391.308 235.032C390.314 235.032 389.452 235.215 388.721 235.58C387.991 235.946 387.384 236.435 386.902 237.049C386.42 237.663 386.062 238.372 385.828 239.175C385.594 239.979 385.477 240.819 385.477 241.696L385.477 252.613L381.356 252.613L381.356 236.304Z" fill="#363636" fill-rule="nonzero" opacity="1" stroke="none"/>
<path d="M401.757 252.613L397.636 252.613L397.636 231.832L401.757 231.832L401.757 252.613ZM402.458 224.335C402.458 225.095 402.188 225.724 401.647 226.22C401.106 226.717 400.456 226.966 399.696 226.966C398.936 226.966 398.293 226.71 397.767 226.198C397.241 225.687 396.978 225.066 396.978 224.335C396.978 223.575 397.241 222.94 397.767 222.428C398.293 221.917 398.936 221.661 399.696 221.661C400.456 221.661 401.106 221.917 401.647 222.428C402.188 222.94 402.458 223.575 402.458 224.335Z" fill="#363636" fill-rule="nonzero" opacity="1" stroke="none"/>
<path d="M419.088 252.613L414.617 252.613L406.155 231.832L410.715 231.832L416.809 248.185L416.896 248.185L423.034 231.832L427.418 231.832L419.088 252.613Z" fill="#363636" fill-rule="nonzero" opacity="1" stroke="none"/>
<path d="M435.938 252.613L431.817 252.613L431.817 231.832L435.938 231.832L435.938 252.613ZM436.639 224.335C436.639 225.095 436.369 225.724 435.828 226.22C435.288 226.717 434.637 226.966 433.877 226.966C433.117 226.966 432.474 226.71 431.948 226.198C431.422 225.687 431.159 225.066 431.159 224.335C431.159 223.575 431.422 222.94 431.948 222.428C432.474 221.917 433.117 221.661 433.877 221.661C434.637 221.661 435.288 221.917 435.828 222.428C436.369 222.94 436.639 223.575 436.639 224.335Z" fill="#363636" fill-rule="nonzero" opacity="1" stroke="none"/>
<path d="M447.22 231.832C447.278 232.358 447.322 232.95 447.351 233.608C447.38 234.265 447.395 234.813 447.395 235.252L447.527 235.252C447.79 234.696 448.148 234.178 448.601 233.695C449.054 233.213 449.572 232.789 450.157 232.424C450.742 232.059 451.385 231.774 452.086 231.569C452.787 231.364 453.518 231.262 454.278 231.262C455.622 231.262 456.777 231.489 457.741 231.942C458.706 232.395 459.51 233.001 460.153 233.761C460.796 234.521 461.271 235.412 461.578 236.435C461.884 237.458 462.038 238.554 462.038 239.723L462.038 252.613L457.917 252.613L457.917 241.082C457.917 240.235 457.851 239.431 457.72 238.671C457.588 237.911 457.347 237.239 456.996 236.655C456.645 236.07 456.163 235.602 455.549 235.252C454.936 234.901 454.146 234.726 453.182 234.726C451.545 234.726 450.208 235.347 449.171 236.589C448.133 237.831 447.614 239.49 447.614 241.565L447.614 252.613L443.493 252.613L443.493 236.304C443.493 235.748 443.479 235.032 443.449 234.156C443.42 233.279 443.376 232.504 443.318 231.832L447.22 231.832Z" fill="#363636" fill-rule="nonzero" opacity="1" stroke="none"/>
<path d="M470.996 256.164C471.902 257.187 473.035 258.005 474.394 258.619C475.753 259.233 477.148 259.539 478.58 259.539C479.954 259.539 481.109 259.342 482.044 258.948C482.979 258.553 483.732 258.012 484.302 257.325C484.872 256.639 485.281 255.828 485.529 254.892C485.778 253.957 485.902 252.949 485.902 251.867L485.902 249.193L485.814 249.193C485.054 250.362 484.017 251.254 482.702 251.867C481.386 252.481 479.983 252.788 478.493 252.788C476.915 252.788 475.475 252.51 474.174 251.955C472.874 251.4 471.771 250.64 470.864 249.675C469.958 248.711 469.257 247.578 468.76 246.278C468.263 244.977 468.015 243.581 468.015 242.091C468.015 240.6 468.263 239.197 468.76 237.882C469.257 236.567 469.958 235.42 470.864 234.441C471.771 233.461 472.867 232.687 474.153 232.117C475.439 231.547 476.871 231.262 478.449 231.262C479.94 231.262 481.364 231.584 482.723 232.227C484.082 232.87 485.157 233.849 485.946 235.164L486.033 235.164L486.033 231.832L490.023 231.832L490.023 251.56C490.023 253.08 489.833 254.534 489.453 255.923C489.073 257.311 488.43 258.538 487.524 259.605C486.618 260.672 485.434 261.527 483.973 262.17C482.512 262.813 480.699 263.134 478.537 263.134C476.725 263.134 474.905 262.806 473.078 262.148C471.252 261.49 469.681 260.562 468.366 259.364L470.996 256.164ZM472.267 242.003C472.267 242.968 472.421 243.888 472.728 244.765C473.035 245.642 473.488 246.416 474.087 247.089C474.686 247.761 475.409 248.302 476.257 248.711C477.104 249.12 478.069 249.325 479.15 249.325C480.203 249.325 481.167 249.135 482.044 248.755C482.921 248.375 483.666 247.856 484.28 247.198C484.894 246.541 485.368 245.766 485.705 244.875C486.041 243.983 486.209 243.026 486.209 242.003C486.209 241.009 486.041 240.074 485.705 239.197C485.368 238.32 484.886 237.546 484.258 236.874C483.629 236.202 482.884 235.668 482.022 235.274C481.16 234.879 480.203 234.682 479.15 234.682C478.069 234.682 477.104 234.879 476.257 235.274C475.409 235.668 474.686 236.194 474.087 236.852C473.488 237.509 473.035 238.284 472.728 239.175C472.421 240.067 472.267 241.009 472.267 242.003Z" fill="#363636" fill-rule="nonzero" opacity="1" stroke="none"/>
<path d="M513.332 252.613L508.991 252.613L508.991 221.573L518.943 221.573C520.434 221.573 521.851 221.727 523.196 222.034C524.54 222.34 525.717 222.83 526.725 223.502C527.733 224.174 528.53 225.059 529.114 226.155C529.699 227.251 529.991 228.588 529.991 230.166C529.991 232.446 529.29 234.287 527.887 235.69C526.484 237.093 524.672 237.984 522.451 238.364L531.131 252.613L525.87 252.613L517.979 238.803L513.332 238.803L513.332 252.613ZM513.332 235.164L518.33 235.164C519.352 235.164 520.302 235.076 521.179 234.901C522.056 234.726 522.823 234.441 523.481 234.046C524.138 233.651 524.657 233.14 525.037 232.512C525.417 231.883 525.607 231.101 525.607 230.166C525.607 229.231 525.417 228.449 525.037 227.821C524.657 227.192 524.153 226.688 523.525 226.308C522.896 225.928 522.158 225.658 521.311 225.497C520.463 225.336 519.572 225.256 518.636 225.256L513.332 225.256L513.332 235.164Z" fill="#363636" fill-rule="nonzero" opacity="1" stroke="none"/>
<path d="M550.743 240.381C550.713 239.563 550.574 238.795 550.326 238.079C550.078 237.363 549.712 236.742 549.23 236.216C548.748 235.69 548.149 235.274 547.433 234.967C546.716 234.66 545.876 234.506 544.912 234.506C544.035 234.506 543.209 234.66 542.435 234.967C541.66 235.274 540.988 235.69 540.418 236.216C539.848 236.742 539.38 237.363 539.015 238.079C538.65 238.795 538.438 239.563 538.379 240.381L550.743 240.381ZM554.907 242.047C554.907 242.281 554.907 242.515 554.907 242.748C554.907 242.982 554.893 243.216 554.864 243.45L538.379 243.45C538.409 244.327 538.606 245.152 538.971 245.927C539.337 246.701 539.826 247.374 540.44 247.944C541.054 248.513 541.762 248.959 542.566 249.281C543.37 249.602 544.225 249.763 545.131 249.763C546.534 249.763 547.747 249.456 548.77 248.842C549.793 248.229 550.596 247.483 551.181 246.606L554.074 248.93C552.964 250.391 551.656 251.465 550.151 252.152C548.645 252.839 546.972 253.183 545.131 253.183C543.553 253.183 542.091 252.919 540.747 252.393C539.402 251.867 538.248 251.129 537.283 250.179C536.319 249.23 535.559 248.082 535.004 246.738C534.448 245.393 534.171 243.903 534.171 242.266C534.171 240.659 534.441 239.175 534.982 237.816C535.522 236.457 536.275 235.295 537.24 234.331C538.204 233.366 539.344 232.614 540.659 232.073C541.974 231.532 543.392 231.262 544.912 231.262C546.432 231.262 547.813 231.511 549.055 232.007C550.297 232.504 551.349 233.22 552.211 234.156C553.073 235.091 553.738 236.223 554.206 237.553C554.674 238.883 554.907 240.381 554.907 242.047Z" fill="#363636" fill-rule="nonzero" opacity="1" stroke="none"/>
<path d="M572.239 237.093C571.772 236.333 571.114 235.712 570.266 235.23C569.419 234.747 568.469 234.506 567.417 234.506C566.949 234.506 566.481 234.557 566.014 234.66C565.546 234.762 565.13 234.923 564.764 235.142C564.399 235.361 564.107 235.639 563.887 235.975C563.668 236.311 563.559 236.728 563.559 237.224C563.559 238.101 563.953 238.752 564.742 239.175C565.532 239.599 566.715 239.986 568.293 240.337C569.287 240.571 570.208 240.849 571.055 241.17C571.903 241.492 572.641 241.894 573.269 242.376C573.898 242.858 574.387 243.435 574.738 244.107C575.089 244.78 575.264 245.569 575.264 246.475C575.264 247.702 575.03 248.74 574.563 249.588C574.095 250.435 573.474 251.129 572.7 251.67C571.925 252.211 571.041 252.598 570.047 252.832C569.053 253.066 568.03 253.183 566.978 253.183C565.4 253.183 563.858 252.876 562.353 252.262C560.848 251.648 559.598 250.713 558.605 249.456L561.542 246.957C562.097 247.775 562.865 248.462 563.844 249.018C564.823 249.573 565.897 249.851 567.066 249.851C567.592 249.851 568.096 249.799 568.578 249.697C569.061 249.595 569.499 249.427 569.894 249.193C570.288 248.959 570.602 248.652 570.836 248.272C571.07 247.892 571.187 247.41 571.187 246.826C571.187 245.861 570.727 245.145 569.806 244.677C568.885 244.21 567.534 243.771 565.751 243.362C565.049 243.187 564.341 242.975 563.624 242.726C562.908 242.478 562.258 242.135 561.674 241.696C561.089 241.258 560.614 240.71 560.249 240.052C559.883 239.395 559.701 238.584 559.701 237.619C559.701 236.508 559.927 235.551 560.38 234.747C560.833 233.944 561.425 233.286 562.156 232.775C562.886 232.263 563.719 231.883 564.655 231.635C565.59 231.386 566.554 231.262 567.548 231.262C569.039 231.262 570.478 231.554 571.867 232.139C573.255 232.723 574.329 233.571 575.089 234.682L572.239 237.093Z" fill="#363636" fill-rule="nonzero" opacity="1" stroke="none"/>
<path d="M595.489 252.613C595.431 252.087 595.387 251.495 595.358 250.837C595.329 250.179 595.314 249.631 595.314 249.193L595.226 249.193C594.7 250.304 593.816 251.246 592.574 252.021C591.332 252.795 589.951 253.183 588.431 253.183C587.087 253.183 585.925 252.963 584.946 252.525C583.967 252.087 583.163 251.48 582.534 250.706C581.906 249.931 581.438 249.032 581.132 248.009C580.825 246.986 580.671 245.89 580.671 244.721L580.671 231.832L584.792 231.832L584.792 243.318C584.792 244.166 584.858 244.977 584.99 245.752C585.121 246.526 585.362 247.206 585.713 247.79C586.064 248.375 586.546 248.842 587.16 249.193C587.773 249.544 588.563 249.719 589.527 249.719C591.193 249.719 592.537 249.098 593.56 247.856C594.583 246.614 595.095 244.955 595.095 242.88L595.095 231.832L599.216 231.832L599.216 248.141C599.216 248.696 599.231 249.412 599.26 250.289C599.289 251.166 599.333 251.94 599.391 252.613L595.489 252.613Z" fill="#363636" fill-rule="nonzero" opacity="1" stroke="none"/>
<path d="M610.936 252.613L606.815 252.613L606.815 219.469L610.936 219.469L610.936 252.613Z" fill="#363636" fill-rule="nonzero" opacity="1" stroke="none"/>
<path d="M628.662 235.208L623.138 235.208L623.138 246.036C623.138 247.293 623.372 248.192 623.84 248.733C624.308 249.273 625.053 249.544 626.076 249.544C626.456 249.544 626.865 249.5 627.303 249.412C627.742 249.325 628.136 249.193 628.487 249.018L628.619 252.393C628.122 252.569 627.574 252.708 626.974 252.81C626.375 252.912 625.754 252.963 625.111 252.963C623.153 252.963 621.655 252.423 620.618 251.341C619.58 250.26 619.061 248.638 619.061 246.475L619.061 235.208L615.072 235.208L615.072 231.832L619.061 231.832L619.061 225.87L623.138 225.87L623.138 231.832L628.662 231.832L628.662 235.208Z" fill="#363636" fill-rule="nonzero" opacity="1" stroke="none"/>
<path d="M644.504 237.093C644.036 236.333 643.378 235.712 642.531 235.23C641.683 234.747 640.733 234.506 639.681 234.506C639.213 234.506 638.746 234.557 638.278 234.66C637.81 234.762 637.394 234.923 637.029 235.142C636.663 235.361 636.371 235.639 636.152 235.975C635.933 236.311 635.823 236.728 635.823 237.224C635.823 238.101 636.218 238.752 637.007 239.175C637.796 239.599 638.98 239.986 640.558 240.337C641.552 240.571 642.472 240.849 643.32 241.17C644.167 241.492 644.905 241.894 645.534 242.376C646.162 242.858 646.652 243.435 647.002 244.107C647.353 244.78 647.529 245.569 647.529 246.475C647.529 247.702 647.295 248.74 646.827 249.588C646.359 250.435 645.738 251.129 644.964 251.67C644.189 252.211 643.305 252.598 642.311 252.832C641.318 253.066 640.295 253.183 639.243 253.183C637.664 253.183 636.123 252.876 634.617 252.262C633.112 251.648 631.863 250.713 630.869 249.456L633.806 246.957C634.362 247.775 635.129 248.462 636.108 249.018C637.087 249.573 638.161 249.851 639.33 249.851C639.856 249.851 640.361 249.799 640.843 249.697C641.325 249.595 641.763 249.427 642.158 249.193C642.553 248.959 642.867 248.652 643.101 248.272C643.334 247.892 643.451 247.41 643.451 246.826C643.451 245.861 642.991 245.145 642.07 244.677C641.15 244.21 639.798 243.771 638.015 243.362C637.314 243.187 636.605 242.975 635.889 242.726C635.173 242.478 634.522 242.135 633.938 241.696C633.353 241.258 632.878 240.71 632.513 240.052C632.148 239.395 631.965 238.584 631.965 237.619C631.965 236.508 632.192 235.551 632.645 234.747C633.098 233.944 633.689 233.286 634.42 232.775C635.151 232.263 635.984 231.883 636.919 231.635C637.854 231.386 638.819 231.262 639.813 231.262C641.303 231.262 642.743 231.554 644.131 232.139C645.519 232.723 646.593 233.571 647.353 234.682L644.504 237.093Z" fill="#363636" fill-rule="nonzero" opacity="1" stroke="none"/>
<path d="M654.558 258.443L651.05 258.443L654.075 247.483L658.197 247.483L654.558 258.443Z" fill="#363636" fill-rule="nonzero" opacity="1" stroke="none"/>
<path d="M675.104 221.573L685.758 221.573C687.745 221.573 689.733 221.866 691.72 222.45C693.708 223.035 695.505 223.955 697.113 225.212C698.72 226.469 700.021 228.076 701.014 230.035C702.008 231.993 702.505 234.346 702.505 237.093C702.505 239.753 702.008 242.054 701.014 243.998C700.021 245.941 698.72 247.549 697.113 248.82C695.505 250.092 693.708 251.042 691.72 251.67C689.733 252.298 687.745 252.613 685.758 252.613L675.104 252.613L675.104 221.573ZM679.445 248.798L684.881 248.798C686.752 248.798 688.483 248.535 690.076 248.009C691.669 247.483 693.043 246.723 694.197 245.73C695.352 244.736 696.25 243.508 696.893 242.047C697.536 240.586 697.858 238.934 697.858 237.093C697.858 235.164 697.536 233.469 696.893 232.007C696.25 230.546 695.352 229.326 694.197 228.347C693.043 227.368 691.669 226.622 690.076 226.111C688.483 225.599 686.752 225.344 684.881 225.344L679.445 225.344L679.445 248.798Z" fill="#363636" fill-rule="nonzero" opacity="1" stroke="none"/>
<path d="M723.826 240.381C723.797 239.563 723.658 238.795 723.41 238.079C723.161 237.363 722.796 236.742 722.314 236.216C721.832 235.69 721.232 235.274 720.516 234.967C719.8 234.66 718.96 234.506 717.995 234.506C717.119 234.506 716.293 234.66 715.518 234.967C714.744 235.274 714.072 235.69 713.502 236.216C712.932 236.742 712.464 237.363 712.099 238.079C711.734 238.795 711.522 239.563 711.463 240.381L723.826 240.381ZM727.991 242.047C727.991 242.281 727.991 242.515 727.991 242.748C727.991 242.982 727.977 243.216 727.947 243.45L711.463 243.45C711.492 244.327 711.69 245.152 712.055 245.927C712.42 246.701 712.91 247.374 713.524 247.944C714.137 248.513 714.846 248.959 715.65 249.281C716.454 249.602 717.309 249.763 718.215 249.763C719.618 249.763 720.83 249.456 721.853 248.842C722.876 248.229 723.68 247.483 724.265 246.606L727.158 248.93C726.048 250.391 724.74 251.465 723.234 252.152C721.729 252.839 720.056 253.183 718.215 253.183C716.636 253.183 715.175 252.919 713.831 252.393C712.486 251.867 711.332 251.129 710.367 250.179C709.403 249.23 708.643 248.082 708.087 246.738C707.532 245.393 707.254 243.903 707.254 242.266C707.254 240.659 707.525 239.175 708.065 237.816C708.606 236.457 709.359 235.295 710.323 234.331C711.288 233.366 712.428 232.614 713.743 232.073C715.058 231.532 716.476 231.262 717.995 231.262C719.515 231.262 720.896 231.511 722.138 232.007C723.381 232.504 724.433 233.22 725.295 234.156C726.157 235.091 726.822 236.223 727.29 237.553C727.757 238.883 727.991 240.381 727.991 242.047Z" fill="#363636" fill-rule="nonzero" opacity="1" stroke="none"/>
<path d="M743.876 235.208L739.054 235.208L739.054 252.613L734.933 252.613L734.933 235.208L730.812 235.208L730.812 231.832L734.933 231.832L734.933 227.492C734.933 226.264 735.071 225.132 735.349 224.094C735.627 223.057 736.08 222.158 736.708 221.398C737.337 220.638 738.14 220.039 739.119 219.6C740.099 219.162 741.29 218.943 742.692 218.943C743.686 218.943 744.548 219.045 745.279 219.25L744.797 222.801C744.475 222.713 744.154 222.64 743.832 222.582C743.511 222.523 743.145 222.494 742.736 222.494C741.947 222.494 741.311 222.633 740.829 222.91C740.347 223.188 739.974 223.561 739.711 224.028C739.448 224.496 739.273 225.029 739.185 225.629C739.098 226.228 739.054 226.849 739.054 227.492L739.054 231.832L743.876 231.832L743.876 235.208ZM752.074 252.613L747.953 252.613L747.953 231.832L752.074 231.832L752.074 252.613ZM752.776 224.335C752.776 225.095 752.506 225.724 751.965 226.22C751.424 226.717 750.774 226.966 750.014 226.966C749.254 226.966 748.611 226.71 748.085 226.198C747.559 225.687 747.296 225.066 747.296 224.335C747.296 223.575 747.559 222.94 748.085 222.428C748.611 221.917 749.254 221.661 750.014 221.661C750.774 221.661 751.424 221.917 751.965 222.428C752.506 222.94 752.776 223.575 752.776 224.335Z" fill="#363636" fill-rule="nonzero" opacity="1" stroke="none"/>
<path d="M763.356 231.832C763.415 232.358 763.458 232.95 763.488 233.608C763.517 234.265 763.531 234.813 763.531 235.252L763.663 235.252C763.926 234.696 764.284 234.178 764.737 233.695C765.19 233.213 765.709 232.789 766.293 232.424C766.878 232.059 767.521 231.774 768.222 231.569C768.924 231.364 769.655 231.262 770.415 231.262C771.759 231.262 772.913 231.489 773.878 231.942C774.842 232.395 775.646 233.001 776.289 233.761C776.932 234.521 777.407 235.412 777.714 236.435C778.021 237.458 778.174 238.554 778.174 239.723L778.174 252.613L774.053 252.613L774.053 241.082C774.053 240.235 773.988 239.431 773.856 238.671C773.724 237.911 773.483 237.239 773.133 236.655C772.782 236.07 772.3 235.602 771.686 235.252C771.072 234.901 770.283 234.726 769.318 234.726C767.682 234.726 766.345 235.347 765.307 236.589C764.269 237.831 763.751 239.49 763.751 241.565L763.751 252.613L759.63 252.613L759.63 236.304C759.63 235.748 759.615 235.032 759.586 234.156C759.557 233.279 759.513 232.504 759.454 231.832L763.356 231.832Z" fill="#363636" fill-rule="nonzero" opacity="1" stroke="none"/>
<path d="M789.675 252.613L785.554 252.613L785.554 231.832L789.675 231.832L789.675 252.613ZM790.377 224.335C790.377 225.095 790.106 225.724 789.566 226.22C789.025 226.717 788.375 226.966 787.615 226.966C786.855 226.966 786.212 226.71 785.686 226.198C785.16 225.687 784.897 225.066 784.897 224.335C784.897 223.575 785.16 222.94 785.686 222.428C786.212 221.917 786.855 221.661 787.615 221.661C788.375 221.661 789.025 221.917 789.566 222.428C790.106 222.94 790.377 223.575 790.377 224.335Z" fill="#363636" fill-rule="nonzero" opacity="1" stroke="none"/>
<path d="M800.957 231.832C801.015 232.358 801.059 232.95 801.089 233.608C801.118 234.265 801.132 234.813 801.132 235.252L801.264 235.252C801.527 234.696 801.885 234.178 802.338 233.695C802.791 233.213 803.31 232.789 803.894 232.424C804.479 232.059 805.122 231.774 805.823 231.569C806.525 231.364 807.255 231.262 808.015 231.262C809.36 231.262 810.514 231.489 811.479 231.942C812.443 232.395 813.247 233.001 813.89 233.761C814.533 234.521 815.008 235.412 815.315 236.435C815.622 237.458 815.775 238.554 815.775 239.723L815.775 252.613L811.654 252.613L811.654 241.082C811.654 240.235 811.588 239.431 811.457 238.671C811.325 237.911 811.084 237.239 810.733 236.655C810.383 236.07 809.901 235.602 809.287 235.252C808.673 234.901 807.884 234.726 806.919 234.726C805.283 234.726 803.945 235.347 802.908 236.589C801.87 237.831 801.352 239.49 801.352 241.565L801.352 252.613L797.231 252.613L797.231 236.304C797.231 235.748 797.216 235.032 797.187 234.156C797.157 233.279 797.114 232.504 797.055 231.832L800.957 231.832Z" fill="#363636" fill-rule="nonzero" opacity="1" stroke="none"/>
<path d="M824.733 256.164C825.639 257.187 826.772 258.005 828.131 258.619C829.49 259.233 830.886 259.539 832.318 259.539C833.691 259.539 834.846 259.342 835.781 258.948C836.717 258.553 837.469 258.012 838.039 257.325C838.609 256.639 839.018 255.828 839.267 254.892C839.515 253.957 839.639 252.949 839.639 251.867L839.639 249.193L839.552 249.193C838.792 250.362 837.754 251.254 836.439 251.867C835.124 252.481 833.721 252.788 832.23 252.788C830.652 252.788 829.212 252.51 827.912 251.955C826.611 251.4 825.508 250.64 824.602 249.675C823.696 248.711 822.994 247.578 822.497 246.278C822.001 244.977 821.752 243.581 821.752 242.091C821.752 240.6 822.001 239.197 822.497 237.882C822.994 236.567 823.696 235.42 824.602 234.441C825.508 233.461 826.604 232.687 827.89 232.117C829.176 231.547 830.608 231.262 832.186 231.262C833.677 231.262 835.102 231.584 836.461 232.227C837.82 232.87 838.894 233.849 839.683 235.164L839.771 235.164L839.771 231.832L843.76 231.832L843.76 251.56C843.76 253.08 843.57 254.534 843.19 255.923C842.81 257.311 842.167 258.538 841.261 259.605C840.355 260.672 839.172 261.527 837.71 262.17C836.249 262.813 834.437 263.134 832.274 263.134C830.462 263.134 828.642 262.806 826.816 262.148C824.989 261.49 823.418 260.562 822.103 259.364L824.733 256.164ZM826.005 242.003C826.005 242.968 826.158 243.888 826.465 244.765C826.772 245.642 827.225 246.416 827.824 247.089C828.423 247.761 829.147 248.302 829.994 248.711C830.842 249.12 831.806 249.325 832.888 249.325C833.94 249.325 834.904 249.135 835.781 248.755C836.658 248.375 837.403 247.856 838.017 247.198C838.631 246.541 839.106 245.766 839.442 244.875C839.778 243.983 839.946 243.026 839.946 242.003C839.946 241.009 839.778 240.074 839.442 239.197C839.106 238.32 838.624 237.546 837.995 236.874C837.367 236.202 836.622 235.668 835.759 235.274C834.897 234.879 833.94 234.682 832.888 234.682C831.806 234.682 830.842 234.879 829.994 235.274C829.147 235.668 828.423 236.194 827.824 236.852C827.225 237.509 826.772 238.284 826.465 239.175C826.158 240.067 826.005 241.009 826.005 242.003Z" fill="#363636" fill-rule="nonzero" opacity="1" stroke="none"/>
<path d="M878.161 227.316C877.547 226.469 876.714 225.775 875.662 225.234C874.61 224.693 873.426 224.423 872.111 224.423C871.409 224.423 870.7 224.518 869.984 224.708C869.268 224.898 868.618 225.205 868.034 225.629C867.449 226.052 866.974 226.578 866.609 227.207C866.243 227.835 866.061 228.588 866.061 229.465C866.061 230.312 866.229 231.021 866.565 231.591C866.901 232.161 867.354 232.643 867.924 233.038C868.494 233.432 869.166 233.768 869.941 234.046C870.715 234.324 871.541 234.609 872.418 234.901C873.47 235.222 874.537 235.588 875.618 235.997C876.699 236.406 877.678 236.947 878.555 237.619C879.432 238.291 880.148 239.132 880.704 240.14C881.259 241.148 881.536 242.427 881.536 243.976C881.536 245.583 881.237 246.979 880.638 248.163C880.039 249.346 879.242 250.326 878.248 251.1C877.255 251.875 876.108 252.452 874.807 252.832C873.506 253.212 872.169 253.402 870.795 253.402C868.837 253.402 866.945 253.022 865.118 252.262C863.291 251.502 861.779 250.377 860.581 248.886L863.956 246.036C864.687 247.118 865.666 247.995 866.894 248.667C868.121 249.339 869.451 249.675 870.883 249.675C871.614 249.675 872.345 249.573 873.075 249.368C873.806 249.164 874.471 248.842 875.07 248.404C875.669 247.965 876.159 247.417 876.539 246.76C876.919 246.102 877.109 245.306 877.109 244.371C877.109 243.435 876.911 242.653 876.517 242.025C876.122 241.397 875.589 240.863 874.917 240.425C874.244 239.986 873.462 239.614 872.571 239.307C871.68 239 870.737 238.686 869.743 238.364C868.75 238.072 867.77 237.714 866.806 237.29C865.841 236.866 864.979 236.326 864.219 235.668C863.459 235.01 862.846 234.199 862.378 233.235C861.91 232.27 861.677 231.072 861.677 229.64C861.677 228.091 861.991 226.761 862.619 225.65C863.248 224.54 864.066 223.619 865.074 222.888C866.083 222.158 867.222 221.624 868.494 221.288C869.765 220.952 871.044 220.784 872.33 220.784C874.142 220.784 875.837 221.106 877.415 221.749C878.994 222.392 880.265 223.254 881.23 224.335L878.161 227.316Z" fill="#363636" fill-rule="nonzero" opacity="1" stroke="none"/>
<path d="M902.463 252.613C902.405 252.087 902.361 251.495 902.332 250.837C902.302 250.179 902.288 249.631 902.288 249.193L902.2 249.193C901.674 250.304 900.79 251.246 899.548 252.021C898.306 252.795 896.925 253.183 895.405 253.183C894.06 253.183 892.899 252.963 891.919 252.525C890.94 252.087 890.137 251.48 889.508 250.706C888.88 249.931 888.412 249.032 888.105 248.009C887.798 246.986 887.645 245.89 887.645 244.721L887.645 231.832L891.766 231.832L891.766 243.318C891.766 244.166 891.832 244.977 891.963 245.752C892.095 246.526 892.336 247.206 892.687 247.79C893.037 248.375 893.52 248.842 894.133 249.193C894.747 249.544 895.536 249.719 896.501 249.719C898.167 249.719 899.511 249.098 900.534 247.856C901.557 246.614 902.069 244.955 902.069 242.88L902.069 231.832L906.19 231.832L906.19 248.141C906.19 248.696 906.204 249.412 906.234 250.289C906.263 251.166 906.307 251.94 906.365 252.613L902.463 252.613Z" fill="#363636" fill-rule="nonzero" opacity="1" stroke="none"/>
<path d="M928.256 237.093C927.818 236.421 927.16 235.858 926.283 235.405C925.407 234.952 924.471 234.726 923.478 234.726C922.396 234.726 921.439 234.93 920.606 235.339C919.773 235.748 919.064 236.296 918.48 236.983C917.895 237.67 917.449 238.467 917.143 239.373C916.836 240.279 916.682 241.229 916.682 242.222C916.682 243.216 916.836 244.166 917.143 245.072C917.449 245.978 917.895 246.774 918.48 247.461C919.064 248.148 919.78 248.696 920.628 249.105C921.476 249.515 922.44 249.719 923.521 249.719C924.574 249.719 925.531 249.515 926.393 249.105C927.255 248.696 927.964 248.141 928.519 247.439L931.281 249.938C930.404 250.961 929.308 251.758 927.993 252.328C926.678 252.898 925.187 253.183 923.521 253.183C921.914 253.183 920.431 252.919 919.072 252.393C917.713 251.867 916.536 251.129 915.542 250.179C914.549 249.23 913.767 248.082 913.197 246.738C912.627 245.393 912.342 243.888 912.342 242.222C912.342 240.586 912.62 239.095 913.175 237.751C913.73 236.406 914.505 235.252 915.499 234.287C916.492 233.323 917.669 232.577 919.028 232.051C920.387 231.525 921.855 231.262 923.434 231.262C924.895 231.262 926.349 231.554 927.796 232.139C929.243 232.723 930.39 233.571 931.237 234.682L928.256 237.093Z" fill="#363636" fill-rule="nonzero" opacity="1" stroke="none"/>
<path d="M950.279 237.093C949.841 236.421 949.183 235.858 948.306 235.405C947.429 234.952 946.494 234.726 945.5 234.726C944.419 234.726 943.462 234.93 942.629 235.339C941.796 235.748 941.087 236.296 940.502 236.983C939.918 237.67 939.472 238.467 939.165 239.373C938.858 240.279 938.705 241.229 938.705 242.222C938.705 243.216 938.858 244.166 939.165 245.072C939.472 245.978 939.918 246.774 940.502 247.461C941.087 248.148 941.803 248.696 942.651 249.105C943.498 249.515 944.463 249.719 945.544 249.719C946.596 249.719 947.554 249.515 948.416 249.105C949.278 248.696 949.987 248.141 950.542 247.439L953.304 249.938C952.427 250.961 951.331 251.758 950.016 252.328C948.701 252.898 947.21 253.183 945.544 253.183C943.937 253.183 942.453 252.919 941.094 252.393C939.735 251.867 938.559 251.129 937.565 250.179C936.571 249.23 935.79 248.082 935.22 246.738C934.65 245.393 934.365 243.888 934.365 242.222C934.365 240.586 934.642 239.095 935.198 237.751C935.753 236.406 936.528 235.252 937.521 234.287C938.515 233.323 939.691 232.577 941.05 232.051C942.41 231.525 943.878 231.262 945.456 231.262C946.918 231.262 948.372 231.554 949.819 232.139C951.265 232.723 952.413 233.571 953.26 234.682L950.279 237.093Z" fill="#363636" fill-rule="nonzero" opacity="1" stroke="none"/>
<path d="M972.959 240.381C972.93 239.563 972.791 238.795 972.543 238.079C972.294 237.363 971.929 236.742 971.447 236.216C970.965 235.69 970.365 235.274 969.649 234.967C968.933 234.66 968.093 234.506 967.128 234.506C966.252 234.506 965.426 234.66 964.651 234.967C963.877 235.274 963.205 235.69 962.635 236.216C962.065 236.742 961.597 237.363 961.232 238.079C960.867 238.795 960.655 239.563 960.596 240.381L972.959 240.381ZM977.124 242.047C977.124 242.281 977.124 242.515 977.124 242.748C977.124 242.982 977.11 243.216 977.08 243.45L960.596 243.45C960.625 244.327 960.823 245.152 961.188 245.927C961.553 246.701 962.043 247.374 962.657 247.944C963.27 248.513 963.979 248.959 964.783 249.281C965.587 249.602 966.442 249.763 967.348 249.763C968.751 249.763 969.964 249.456 970.986 248.842C972.009 248.229 972.813 247.483 973.398 246.606L976.291 248.93C975.181 250.391 973.873 251.465 972.367 252.152C970.862 252.839 969.189 253.183 967.348 253.183C965.769 253.183 964.308 252.919 962.964 252.393C961.619 251.867 960.465 251.129 959.5 250.179C958.536 249.23 957.776 248.082 957.22 246.738C956.665 245.393 956.387 243.903 956.387 242.266C956.387 240.659 956.658 239.175 957.199 237.816C957.739 236.457 958.492 235.295 959.456 234.331C960.421 233.366 961.561 232.614 962.876 232.073C964.191 231.532 965.609 231.262 967.128 231.262C968.648 231.262 970.029 231.511 971.271 232.007C972.514 232.504 973.566 233.22 974.428 234.156C975.29 235.091 975.955 236.223 976.423 237.553C976.89 238.883 977.124 240.381 977.124 242.047Z" fill="#363636" fill-rule="nonzero" opacity="1" stroke="none"/>
<path d="M994.456 237.093C993.988 236.333 993.331 235.712 992.483 235.23C991.636 234.747 990.686 234.506 989.633 234.506C989.166 234.506 988.698 234.557 988.231 234.66C987.763 234.762 987.346 234.923 986.981 235.142C986.616 235.361 986.323 235.639 986.104 235.975C985.885 236.311 985.775 236.728 985.775 237.224C985.775 238.101 986.17 238.752 986.959 239.175C987.748 239.599 988.932 239.986 990.51 240.337C991.504 240.571 992.425 240.849 993.272 241.17C994.12 241.492 994.858 241.894 995.486 242.376C996.115 242.858 996.604 243.435 996.955 244.107C997.306 244.78 997.481 245.569 997.481 246.475C997.481 247.702 997.247 248.74 996.78 249.588C996.312 250.435 995.691 251.129 994.916 251.67C994.142 252.211 993.258 252.598 992.264 252.832C991.27 253.066 990.247 253.183 989.195 253.183C987.617 253.183 986.075 252.876 984.57 252.262C983.065 251.648 981.815 250.713 980.821 249.456L983.759 246.957C984.314 247.775 985.081 248.462 986.06 249.018C987.04 249.573 988.114 249.851 989.283 249.851C989.809 249.851 990.313 249.799 990.795 249.697C991.277 249.595 991.716 249.427 992.11 249.193C992.505 248.959 992.819 248.652 993.053 248.272C993.287 247.892 993.404 247.41 993.404 246.826C993.404 245.861 992.943 245.145 992.023 244.677C991.102 244.21 989.75 243.771 987.968 243.362C987.266 243.187 986.557 242.975 985.841 242.726C985.125 242.478 984.475 242.135 983.89 241.696C983.306 241.258 982.831 240.71 982.465 240.052C982.1 239.395 981.917 238.584 981.917 237.619C981.917 236.508 982.144 235.551 982.597 234.747C983.05 233.944 983.642 233.286 984.373 232.775C985.103 232.263 985.936 231.883 986.871 231.635C987.807 231.386 988.771 231.262 989.765 231.262C991.256 231.262 992.695 231.554 994.083 232.139C995.472 232.723 996.546 233.571 997.306 234.682L994.456 237.093Z" fill="#363636" fill-rule="nonzero" opacity="1" stroke="none"/>
<path d="M1014.29 237.093C1013.82 236.333 1013.16 235.712 1012.31 235.23C1011.47 234.747 1010.52 234.506 1009.46 234.506C1009 234.506 1008.53 234.557 1008.06 234.66C1007.59 234.762 1007.18 234.923 1006.81 235.142C1006.45 235.361 1006.15 235.639 1005.93 235.975C1005.72 236.311 1005.61 236.728 1005.61 237.224C1005.61 238.101 1006 238.752 1006.79 239.175C1007.58 239.599 1008.76 239.986 1010.34 240.337C1011.33 240.571 1012.26 240.849 1013.1 241.17C1013.95 241.492 1014.69 241.894 1015.32 242.376C1015.95 242.858 1016.43 243.435 1016.79 244.107C1017.14 244.78 1017.31 245.569 1017.31 246.475C1017.31 247.702 1017.08 248.74 1016.61 249.588C1016.14 250.435 1015.52 251.129 1014.75 251.67C1013.97 252.211 1013.09 252.598 1012.09 252.832C1011.1 253.066 1010.08 253.183 1009.03 253.183C1007.45 253.183 1005.91 252.876 1004.4 252.262C1002.9 251.648 1001.65 250.713 1000.65 249.456L1003.59 246.957C1004.14 247.775 1004.91 248.462 1005.89 249.018C1006.87 249.573 1007.94 249.851 1009.11 249.851C1009.64 249.851 1010.14 249.799 1010.63 249.697C1011.11 249.595 1011.55 249.427 1011.94 249.193C1012.34 248.959 1012.65 248.652 1012.88 248.272C1013.12 247.892 1013.23 247.41 1013.23 246.826C1013.23 245.861 1012.77 245.145 1011.85 244.677C1010.93 244.21 1009.58 243.771 1007.8 243.362C1007.1 243.187 1006.39 242.975 1005.67 242.726C1004.96 242.478 1004.31 242.135 1003.72 241.696C1003.14 241.258 1002.66 240.71 1002.3 240.052C1001.93 239.395 1001.75 238.584 1001.75 237.619C1001.75 236.508 1001.97 235.551 1002.43 234.747C1002.88 233.944 1003.47 233.286 1004.2 232.775C1004.93 232.263 1005.77 231.883 1006.7 231.635C1007.64 231.386 1008.6 231.262 1009.6 231.262C1011.09 231.262 1012.53 231.554 1013.91 232.139C1015.3 232.723 1016.38 233.571 1017.14 234.682L1014.29 237.093Z" fill="#363636" fill-rule="nonzero" opacity="1" stroke="none"/>
</g>
<g opacity="1" vectornator:layerName="Group 9">
<g opacity="1" vectornator:layerName="Group 7">
<path d="M360.838 98.8049L375.382 98.8049C380.268 98.8049 384.82 99.7857 389.039 101.747C393.258 103.709 396.904 106.392 399.976 109.797C403.047 113.202 405.472 117.217 407.248 121.844C409.025 126.47 409.913 131.485 409.913 136.888C409.913 149.694 406.193 159.501 398.754 166.311C391.315 173.121 380.601 176.526 366.611 176.526L347.847 176.526L347.847 112.017C347.847 103.209 352.177 98.8049 360.838 98.8049ZM362.836 112.684L362.836 162.647L371.496 162.647C375.049 162.647 378.269 162.036 381.156 160.815C384.043 159.594 386.504 157.836 388.539 155.541C390.575 153.247 392.148 150.489 393.258 147.269C394.369 144.05 394.924 140.441 394.924 136.444C394.924 132.817 394.387 129.542 393.314 126.618C392.24 123.694 390.686 121.196 388.651 119.123C386.615 117.051 384.154 115.459 381.267 114.349C378.38 113.239 375.16 112.684 371.607 112.684L362.836 112.684Z" fill="#021522" fill-rule="nonzero" opacity="1" stroke="none"/>
<path d="M433.91 118.774C432.282 118.774 430.727 119.077 429.284 119.669C427.84 120.262 426.551 121.096 425.441 122.132C424.331 123.168 423.459 124.42 422.829 125.9C422.2 127.38 421.897 128.973 421.897 130.675L421.897 176.528L436.335 176.528L436.335 118.998C435.965 118.924 435.548 118.886 435.104 118.849C434.66 118.812 434.28 118.774 433.91 118.774Z" fill="#021522" fill-rule="nonzero" opacity="1" stroke="none"/>
<path d="M428.911 98.2544C426.098 98.2545 424.051 99.2406 422.829 101.239C421.608 103.238 421.001 105.664 421.001 108.477C421.001 110.179 421.191 111.924 421.524 113.737C421.857 115.551 422.274 117.333 422.792 119.11C423.162 118.148 423.807 117.389 424.732 116.797C425.657 116.205 427.212 115.598 429.358 115.006C430.395 114.71 432.38 113.961 432.38 113.961C432.38 113.961 434.289 113.024 435.067 112.394C435.844 111.765 436.451 111.044 436.932 110.193C437.413 109.342 437.678 108.28 437.678 107.022C437.678 104.801 436.92 102.791 435.402 100.978C433.885 99.1644 431.724 98.2544 428.911 98.2544Z" fill="#f29415" fill-rule="nonzero" opacity="1" stroke="none"/>
<path d="M474.643 117.902C476.79 117.902 486.776 117.516 494.03 123.911C495.593 125.29 496.756 121.28 498.715 124.21C499.772 125.791 497.982 126.84 498.908 128.542C499.833 130.245 495.023 128.299 495.023 130.52C495.023 132.444 494.823 141.432 494.157 142.543C491.918 136.721 488.726 134.464 487.8 133.835C486.875 133.206 485.876 132.688 484.802 132.28C483.729 131.873 482.619 131.596 481.472 131.448C480.324 131.3 479.232 131.226 478.196 131.226C475.605 131.226 473.348 131.688 471.423 132.614C469.499 133.539 467.889 134.76 466.594 136.278C465.298 137.795 464.317 139.534 463.651 141.496C462.985 143.457 462.652 145.437 462.652 147.436C462.652 149.435 462.967 151.396 463.596 153.321C464.225 155.245 465.187 156.948 466.483 158.428C467.778 159.908 469.406 161.111 471.368 162.036C473.329 162.962 475.605 163.424 478.196 163.424C481.157 163.424 483.6 162.832 485.524 161.648C487.449 160.464 488.985 158.891 490.132 156.929C491.279 154.968 492.093 152.747 492.575 150.267C493.056 147.788 493.296 145.252 493.296 142.662L493.296 119.123L507.73 119.123L507.73 167.421C507.73 177.34 505.269 185.131 500.347 190.793C495.424 196.456 488.189 199.287 478.64 199.287C474.939 199.287 471.516 198.935 468.37 198.232C465.224 197.529 462.504 196.456 460.209 195.012C457.915 193.569 456.12 191.755 454.824 189.572C453.529 187.388 452.881 184.853 452.881 181.966C452.881 181.152 452.937 180.301 453.048 179.413C453.159 178.524 453.362 177.599 453.659 176.637C454.769 178.191 456.268 179.542 458.155 180.689C460.043 181.837 462.06 182.762 464.206 183.465C466.353 184.168 468.518 184.687 470.702 185.02C472.885 185.353 474.902 185.519 476.753 185.519C479.936 185.519 482.582 185.057 484.691 184.131C486.801 183.206 488.503 181.966 489.799 180.412C491.094 178.857 492.001 177.081 492.519 175.082C493.037 173.084 493.296 171.048 493.296 168.976C490.632 171.641 487.893 173.602 485.08 174.86C482.267 176.119 478.899 176.748 474.976 176.748C471.571 176.748 468.259 176.063 465.039 174.694C461.819 173.325 458.969 171.363 456.49 168.809C454.01 166.256 452.012 163.165 450.494 159.538C448.977 155.911 448.218 151.803 448.218 147.214C448.218 142.625 448.958 138.535 450.439 134.945C451.919 131.355 453.899 128.283 456.379 125.73C458.858 123.176 461.69 121.233 464.873 119.901C468.055 118.568 471.312 117.902 474.643 117.902Z" fill="#021522" fill-rule="nonzero" opacity="1" stroke="none"/>
<path d="M532.815 118.774C531.186 118.774 529.669 119.077 528.226 119.669C526.782 120.262 525.493 121.096 524.383 122.132C523.273 123.168 522.401 124.42 521.771 125.9C521.142 127.38 520.839 128.973 520.839 130.675L520.839 176.528L535.277 176.528L535.277 118.998C534.907 118.924 534.49 118.886 534.046 118.849C533.602 118.812 533.185 118.774 532.815 118.774Z" fill="#021522" fill-rule="nonzero" opacity="1" stroke="none"/>
<path d="M527.815 98.2544C525.003 98.2545 522.993 99.2406 521.771 101.239C520.55 103.238 519.943 105.664 519.943 108.477C519.943 110.179 520.095 111.924 520.428 113.737C520.761 115.551 521.216 117.333 521.734 119.11C522.104 118.148 522.749 117.389 523.674 116.797C524.6 116.205 526.117 115.598 528.263 115.006C529.299 114.71 530.323 114.368 531.322 113.961C532.322 113.554 533.194 113.024 533.971 112.394C534.749 111.765 535.393 111.044 535.874 110.193C536.355 109.342 536.583 108.28 536.583 107.022C536.583 104.801 535.824 102.791 534.307 100.978C532.79 99.1644 530.628 98.2544 527.815 98.2544Z" fill="#f29415" fill-rule="nonzero" opacity="1" stroke="none"/>
<path d="M554.807 119.123L554.807 116.015C554.807 114.238 555.14 112.647 555.806 111.24C556.472 109.834 557.361 108.631 558.471 107.632C559.581 106.633 560.876 105.874 562.357 105.356C563.837 104.838 565.392 104.578 567.02 104.578C567.39 104.578 567.76 104.578 568.13 104.578C568.501 104.578 568.871 104.615 569.241 104.689L569.241 119.123L582.12 119.123C582.12 120.53 581.991 121.955 581.732 123.398C581.473 124.841 580.973 126.137 580.233 127.284C579.492 128.431 578.493 129.357 577.235 130.06C575.977 130.763 574.348 131.115 572.35 131.115L569.241 131.115L569.241 160.649C569.241 161.759 569.648 162.666 570.462 163.369C571.276 164.072 572.239 164.424 573.349 164.424C574.607 164.424 575.847 164.239 577.068 163.868C578.29 163.498 579.196 162.869 579.789 161.981C580.233 163.165 580.455 164.35 580.455 165.534C580.455 167.088 580.177 168.55 579.622 169.92C579.067 171.289 578.234 172.51 577.124 173.584C576.014 174.657 574.644 175.508 573.016 176.137C571.387 176.766 569.537 177.081 567.464 177.081C565.91 177.081 564.374 176.822 562.857 176.304C561.339 175.786 559.988 175.008 558.804 173.972C557.62 172.936 556.657 171.641 555.917 170.086C555.177 168.532 554.807 166.718 554.807 164.646L554.807 131.115L547.701 131.115L547.701 119.123L554.807 119.123Z" fill="#021522" fill-rule="nonzero" opacity="1" stroke="none"/>
<path d="M616.762 117.569C621.647 117.569 625.551 118.698 628.475 120.955C631.399 123.213 632.861 126.562 632.861 131.004C632.861 132.854 632.528 134.334 631.862 135.445C630.603 133.594 628.845 132.354 626.588 131.725C624.33 131.096 622.276 130.782 620.426 130.782C617.761 130.782 615.429 131.281 613.431 132.28C611.432 133.28 609.748 134.594 608.379 136.222C607.009 137.85 605.992 139.719 605.325 141.829C604.659 143.939 604.326 146.067 604.326 148.213C604.326 150.286 604.641 152.321 605.27 154.32C605.899 156.318 606.843 158.095 608.101 159.649C609.36 161.204 610.951 162.444 612.875 163.369C614.8 164.294 617.021 164.757 619.537 164.757C622.572 164.757 625.089 164.091 627.087 162.758C629.086 161.426 630.659 159.705 631.806 157.595C632.953 155.486 633.768 153.099 634.249 150.434C634.73 147.769 634.97 145.141 634.97 142.551L634.97 119.012L649.404 119.012L649.404 176.526L634.97 176.526L634.97 170.197C632.306 172.862 629.4 174.823 626.255 176.082C623.109 177.34 619.907 177.969 616.651 177.969C613.246 177.969 609.933 177.303 606.713 175.971C603.493 174.638 600.644 172.695 598.164 170.142C595.684 167.588 593.686 164.479 592.168 160.815C590.651 157.151 589.892 153.025 589.892 148.435C589.892 143.846 590.632 139.664 592.113 135.889C593.593 132.114 595.592 128.857 598.109 126.118C600.625 123.38 603.493 121.27 606.713 119.79C609.933 118.309 613.283 117.569 616.762 117.569Z" fill="#021522" fill-rule="nonzero" opacity="1" stroke="none"/>
<path d="M661.618 110.13C661.618 108.576 661.914 107.095 662.506 105.689C663.098 104.282 663.931 103.043 665.004 101.969C666.077 100.896 667.354 100.063 668.835 99.4711C670.315 98.8789 671.906 98.5828 673.609 98.5828C673.979 98.5828 674.368 98.6014 674.775 98.6384C675.182 98.6754 675.607 98.7309 676.052 98.8049L676.052 176.526L661.618 176.526L661.618 110.13Z" fill="#021522" fill-rule="nonzero" opacity="1" stroke="none"/>
<path d="M729.013 98.8049L743.558 98.8049C748.443 98.8049 752.995 99.7857 757.214 101.747C761.434 103.709 765.079 106.392 768.151 109.797C771.223 113.202 773.647 117.217 775.423 121.844C777.2 126.47 778.088 131.485 778.088 136.888C778.088 149.694 774.369 159.501 766.93 166.311C759.491 173.121 748.776 176.526 734.786 176.526L716.022 176.526L716.022 112.017C716.022 103.209 720.352 98.8049 729.013 98.8049ZM731.011 112.684L731.011 162.647L739.672 162.647C743.225 162.647 746.445 162.036 749.331 160.815C752.218 159.594 754.679 157.836 756.715 155.541C758.75 153.247 760.323 150.489 761.434 147.269C762.544 144.05 763.099 140.441 763.099 136.444C763.099 132.817 762.562 129.542 761.489 126.618C760.416 123.694 758.861 121.196 756.826 119.123C754.79 117.051 752.329 115.459 749.442 114.349C746.556 113.239 743.336 112.684 739.783 112.684L731.011 112.684Z" fill="#021522" fill-rule="nonzero" opacity="1" stroke="none"/>
<path d="M817.615 118.124C821.242 118.124 824.536 118.587 827.496 119.512C830.457 120.437 832.992 121.733 835.102 123.398C837.212 125.063 838.84 127.062 839.987 129.394C841.135 131.725 841.708 134.297 841.708 137.11C841.708 139.923 841.153 142.532 840.043 144.938C838.932 147.343 837.378 149.435 835.38 151.211C833.381 152.988 831.031 154.375 828.329 155.375C825.627 156.374 822.685 156.874 819.502 156.874C814.765 156.874 810.953 155.819 808.066 153.709C805.179 151.6 803.736 148.768 803.736 145.215C803.736 143.587 804.069 141.959 804.735 140.33C806.512 141.885 808.418 143.069 810.453 143.883C812.489 144.697 814.432 145.104 816.282 145.104C820.057 145.104 823.148 144.475 825.553 143.217C827.959 141.959 829.162 140.145 829.162 137.776C829.162 136.296 828.348 134.908 826.719 133.613C825.091 132.317 822.426 131.67 818.725 131.67C813.1 131.67 808.714 133.058 805.568 135.833C802.422 138.609 800.849 142.551 800.849 147.658C800.849 152.617 802.293 156.54 805.179 159.427C808.066 162.314 811.767 163.757 816.282 163.757C818.651 163.757 821.02 163.498 823.388 162.98C825.757 162.462 828.887 161.719 832.551 163.245C836.215 164.772 838.044 169.087 838.044 169.087C832.715 174.86 825.683 177.747 816.949 177.747C812.433 177.747 808.307 177.007 804.569 175.527C800.831 174.046 797.611 171.974 794.909 169.309C792.207 166.644 790.116 163.48 788.636 159.816C787.156 156.152 786.415 152.173 786.415 147.88C786.415 143.439 787.193 139.386 788.747 135.722C790.301 132.058 792.466 128.931 795.242 126.34C798.018 123.75 801.312 121.733 805.124 120.289C808.936 118.846 813.1 118.124 817.615 118.124Z" fill="#021522" fill-rule="nonzero" opacity="1" stroke="none"/>
<path d="M937.416 117.569C942.301 117.569 946.206 118.698 949.13 120.955C952.053 123.213 953.515 126.562 953.515 131.004C953.515 132.854 953.182 134.334 952.516 135.445C951.258 133.594 949.5 132.354 947.242 131.725C944.985 131.096 942.931 130.782 941.08 130.782C938.415 130.782 936.084 131.281 934.085 132.28C932.087 133.28 930.403 134.594 929.033 136.222C927.664 137.85 926.646 139.719 925.98 141.829C925.314 143.939 924.981 146.067 924.981 148.213C924.981 150.286 925.295 152.321 925.924 154.32C926.554 156.318 927.497 158.095 928.756 159.649C930.014 161.204 931.605 162.444 933.53 163.369C935.455 164.294 937.675 164.757 940.192 164.757C943.227 164.757 945.743 164.091 947.742 162.758C949.74 161.426 951.313 159.705 952.461 157.595C953.608 155.486 954.422 153.099 954.903 150.434C955.384 147.769 955.625 145.141 955.625 142.551L955.625 119.012L970.059 119.012L970.059 176.526L955.625 176.526L955.625 170.197C952.96 172.862 950.055 174.823 946.909 176.082C943.763 177.34 940.562 177.969 937.305 177.969C933.9 177.969 930.588 177.303 927.368 175.971C924.148 174.638 921.298 172.695 918.819 170.142C916.339 167.588 914.34 164.479 912.823 160.815C911.305 157.151 910.547 153.025 910.547 148.435C910.547 143.846 911.287 139.664 912.767 135.889C914.248 132.114 916.246 128.857 918.763 126.118C921.28 123.38 924.148 121.27 927.368 119.79C930.588 118.309 933.937 117.569 937.416 117.569Z" fill="#021522" fill-rule="nonzero" opacity="1" stroke="none"/>
<path d="M981.162 176.526L981.162 119.123L995.485 119.123L995.485 123.787C996.595 121.862 998.057 120.326 999.87 119.179C1001.68 118.032 1003.7 117.458 1005.92 117.458C1008.81 117.458 1011.16 118.161 1012.97 119.568C1014.79 120.974 1016.03 122.621 1016.69 124.508C1017.36 126.396 1017.49 128.32 1017.08 130.282C1016.67 132.243 1015.69 133.816 1014.14 135.001C1013.62 133.668 1012.75 132.669 1011.53 132.003C1010.31 131.337 1008.96 131.004 1007.48 131.004C1006.14 131.004 1004.77 131.263 1003.37 131.781C1001.96 132.299 1000.68 133.058 999.537 134.057C998.39 135.056 997.446 136.315 996.706 137.832C995.966 139.349 995.596 141.107 995.596 143.106L995.596 176.526L981.162 176.526Z" fill="#021522" fill-rule="nonzero" opacity="1" stroke="none"/>
</g>
<path d="M860.927 118.907C859.373 118.907 857.894 119.097 856.525 119.504C855.155 119.911 853.942 120.556 852.906 121.444C851.869 122.332 851.036 123.507 850.406 124.914C849.777 126.32 849.473 127.989 849.473 129.987L849.473 156.551C849.473 159.512 849.966 162.243 850.928 164.796C851.891 167.35 853.256 169.586 855.07 171.437C856.883 173.288 859.12 174.729 861.748 175.765C864.376 176.801 867.333 177.295 870.59 177.295C872.144 177.295 873.737 177.105 875.403 176.735C877.068 176.365 878.66 175.834 880.178 175.093C881.695 174.353 883.022 173.443 884.17 172.407C885.318 171.371 886.152 170.157 886.67 168.751C886.67 174.154 885.267 178.174 882.454 180.839C879.641 183.504 875.583 184.868 870.254 184.868C868.404 184.868 866.507 184.679 864.621 184.346C862.733 184.013 860.95 183.482 859.248 182.704C857.546 181.927 855.99 180.904 854.547 179.682C853.104 178.461 851.929 176.982 851.04 175.205C850.3 176.464 849.883 177.639 849.772 178.787C849.661 179.934 849.585 181.071 849.585 182.182C849.585 184.773 850.193 187.048 851.376 189.009C852.56 190.971 854.153 192.639 856.189 193.971C858.224 195.304 860.613 196.29 863.315 196.993C866.017 197.697 868.823 198.075 871.784 198.075C881.406 198.075 888.725 195.497 893.684 190.353C898.643 185.208 901.108 178.269 901.108 169.534L901.108 119.131L886.67 119.131L886.67 155.917C886.67 155.917 884.134 164.862 873.612 164.796C864.334 164.738 864.061 157.148 864.061 157.148L864.061 119.28L864.051 119.164L863.912 119.131C863.393 119.057 862.9 118.981 862.419 118.944C861.938 118.907 861.445 118.907 860.927 118.907Z" fill="#021522" fill-rule="nonzero" opacity="1" stroke="#007aff" stroke-linecap="butt" stroke-linejoin="round" stroke-width="0.0119387"/>
</g>
</g>
</g>
</svg>
