<?xml version="1.0" encoding="UTF-8"?>
<svg id="Layer_1" data-name="Layer 1" xmlns="http://www.w3.org/2000/svg" viewBox="0 0 1080 1080">
  <defs>
    <style>
      .cls-1 {
        fill: #999;
      }

      .cls-1, .cls-2, .cls-3 {
        stroke-width: 0px;
      }

      .cls-2 {
        fill: #fff;
      }

      .cls-3 {
        fill: #f15a24;
      }
    </style>
  </defs>
  <g>
    <path class="cls-2" d="m237.92,279.12c22.95,0,48.78,6.62,77.47,19.86,28.69,13.24,51.91,33.02,69.67,59.34,17.75,26.32,26.63,57.01,26.63,92.05,0,47.74-14.69,87-44.07,117.76-29.38,30.76-67.49,46.14-114.31,46.14l-130.15-.93c-3.52,0-6.51-.89-8.95-2.67-2.45-1.78-3.67-4.22-3.67-7.32,0-2.63.84-4.8,2.52-6.5,1.68-1.7,6.27-2.97,13.77-3.81,7.5-.84,12.28-2.45,14.35-4.81s3.1-5.31,3.1-8.83v-260.59c0-6.88-1.11-11.84-3.33-14.9-2.22-3.06-4.59-4.85-7.12-5.38-2.52-.53-7.38-.8-14.58-.8-4.44,0-7.42-.73-8.95-2.21-1.53-1.47-2.3-3.76-2.3-6.86,0-6.35,5.05-9.53,15.15-9.53h114.77Zm-54.86,287.66c0,8.86,4.06,15.66,12.19,20.4,8.13,4.74,23.09,7.1,44.88,7.1,23.62,0,41.5-3.06,53.62-9.17,20.56-10.54,37.24-27.27,50.05-50.19,12.81-22.92,19.22-46.14,19.22-69.67,0-20.32-1.73-39.46-5.18-57.41-3.45-17.95-9.67-34.15-18.64-48.59-8.98-14.44-22.52-28.08-40.62-40.91-18.11-12.83-42.19-19.25-72.26-19.25s-43.27,6.27-43.27,18.79v248.9Z"/>
    <path class="cls-2" d="m495.01,575c0,7.5,1.38,12.4,4.13,14.69s6.43,3.79,11.02,4.48,7.84,1.65,9.76,2.89c1.91,1.24,2.87,3.8,2.87,7.68,0,5.12-4.45,7.68-13.35,7.68-3.84,0-9.59-.46-17.26-1.38-7.67-.92-13.35-1.38-17.03-1.38s-9.05.61-16.11,1.84c-7.06,1.22-12.35,1.84-15.88,1.84s-6.56-1.01-9.09-3.02c-2.53-2.02-3.79-4.65-3.79-7.9,0-2.02.69-3.76,2.07-5.23,1.38-1.47,4.9-2.67,10.56-3.58,5.66-.92,9.6-2.75,11.82-5.5,2.22-2.75,3.33-9.39,3.33-19.93v-77.44c0-6.57-1.38-10.92-4.13-13.06s-6.81-3.74-12.17-4.81c-5.36-1.07-8.69-2.45-9.98-4.16-1.3-1.7-1.95-3.79-1.95-6.28,0-2.79,1.11-5.07,3.34-6.85,2.23-1.78,4.88-2.68,7.95-2.68,2.61,0,6.33.57,11.17,1.72,4.83,1.15,8.41,1.72,10.71,1.72,2.61,0,6.6-.42,11.98-1.26,5.37-.84,9.37-1.26,11.98-1.26,5.68,0,8.52,4.75,8.52,14.23,0,1.53-.08,3.56-.23,6.08-.15,2.52-.23,4.25-.23,5.16v95.72Zm-18.7-199.24c7,0,13.06,2.55,18.16,7.65,5.1,5.1,7.66,11.16,7.66,18.16,0,6.24-2.51,11.54-7.54,15.88-5.03,4.34-10.97,6.51-17.82,6.51s-12.76-2.4-17.71-7.19c-4.95-4.8-7.42-10.55-7.42-17.25s2.48-11.95,7.42-16.67c4.95-4.72,10.7-7.08,17.26-7.08Z"/>
    <path class="cls-2" d="m939.18,571.82c0,11,7.35,18.64,22.04,22.92,3.67,1.08,6.39,2.32,8.15,3.72,1.76,1.4,2.64,4.03,2.64,7.9,0,2.02-1.19,3.76-3.56,5.23-2.37,1.47-4.93,2.21-7.69,2.21-2.91,0-6.85-.69-11.82-2.07-4.97-1.38-8.99-2.07-12.05-2.07-3.52,0-7.96.69-13.31,2.07-5.36,1.38-8.95,2.07-10.79,2.07-2.14,0-4.25-.77-6.31-2.3-2.07-1.53-3.1-3.06-3.1-4.59,0-2.45-.77-3.67-2.3-3.67-1.07,0-2.45.54-4.13,1.61-17.29,10.71-35.96,16.07-56.01,16.07-9.49,0-20.09-2.45-31.79-7.35-11.71-4.89-21.08-12.43-28.12-22.61-7.04-10.17-10.56-22.76-10.56-37.76,0-15.91,7.6-29.99,22.8-42.24,15.2-12.24,34.79-18.36,58.77-18.36,8.09,0,16.99,2.26,26.69,6.77,9.7,4.52,14.55,9.15,14.55,13.89,0,2.29-1,4.13-2.98,5.51-1.99,1.38-4.44,2.07-7.35,2.07-1.99,0-5.89-1.38-11.71-4.13-5.82-2.76-11.79-4.13-17.9-4.13-12.55,0-22.95,3.7-31.22,11.1-8.26,7.4-12.4,17.28-12.4,29.64,0,14.35,4.74,25.38,14.23,33.08,9.49,7.71,20.43,11.56,32.83,11.56,11.17,0,21.46-3.67,30.87-11.02,9.41-7.35,14.12-17.14,14.12-29.38v-62.21c0-9.33-3.09-16.91-9.28-22.72-6.18-5.81-14.46-8.72-24.84-8.72-13.28,0-26.18,4.21-38.7,12.62-4.28,2.91-7.18,4.36-8.7,4.36-3.67,0-6.79-.95-9.39-2.87-2.6-1.91-3.89-4.4-3.89-7.46,0-7.5,6.85-13.85,20.54-19.05,13.69-5.2,28.65-7.8,44.88-7.8,20.04,0,36.19,5.04,48.43,15.13,12.24,10.09,18.36,22.08,18.36,35.98v77.01Z"/>
  </g>
  <path class="cls-3" d="m482.04,248.7c-2.96-2.13-6.96-2.11-9.9.05-15.75,11.42-63.79,50.27-63.79,99.65,0,27.89,16.73,51.91,40.66,62.67-4.09-5.76-6.3-12.65-6.3-19.72-.15-27.67,30.56-59.21,31.87-60.13,1.49-1.07,3.49-1.07,4.97,0,1.31.92,31.88,25.55,31.88,60.14,0,7.34-2.36,14.11-6.3,19.7,23.92-10.76,40.65-34.77,40.65-62.63,0-50.34-47.95-88.53-63.74-99.74Z"/>
  <path class="cls-1" d="m792.59,482.49c0,3.56-13.07,19.79-39.19,48.69-28.98,31.75-66.75,60.43-113.31,86.02l-17.44,31.32c-34.41,61.69-70.36,107.6-107.84,137.74-38.67,31.08-72.25,46.62-100.72,46.62-9.73,0-17.85-3.09-24.38-9.25-6.52-6.17-9.79-13.76-9.79-22.78,0-47.69,54.93-97.05,164.79-148.06,9.01-4.51,22.54-10.8,40.57-18.86l5.34-3.2,62.64-111.4c-24.68,33.93-42.59,56.18-53.74,66.73-11.15,10.56-22.42,15.84-33.81,15.84-9.73,0-18.21-4.15-25.45-12.46-7.24-8.3-10.85-18.03-10.85-29.18,0-13.52,8.42-34.64,25.27-63.35l54.81-92.54c5.46.95,11.74,1.42,18.86,1.42,6.17,0,14.71-.83,25.63-2.49l-70.11,113.89c-19.93,32.27-29.9,53.39-29.9,63.35,0,10.68,4.86,16.02,14.59,16.02,25.62,0,65.01-45.43,118.16-136.31l32.74-55.88c5.46.95,12.1,1.42,19.93,1.42,6.41,0,14.35-.83,23.84-2.49-29.42,46.75-69.29,115.31-119.58,205.72,28.98-14.93,53.45-31.09,73.41-48.51,19.95-17.42,42.29-42,66.99-73.75,3.33-4.27,5.46-6.4,6.41-6.4,1.42,0,2.14.71,2.14,2.14Zm-205.54,154.29c-3.8,2.14-17.21,8.9-40.22,20.29-107.96,53.62-161.94,101.79-161.94,144.5,0,17.8,9.97,26.69,29.9,26.69,25.15,0,50.18-13.65,75.1-40.93,24.91-27.29,55.76-75.1,92.54-143.43l4.63-7.12Z"/>
</svg>